<svg width="192" height="192" viewBox="0 0 192 192" fill="none" xmlns="http://www.w3.org/2000/svg">
<rect width="192" height="192" rx="32" fill="#1F1F1F"/>
<path d="M58.1679 62.2255C58.9354 62.7476 59.4601 63.4277 59.986 64.1836C65.6865 72.3361 77.8882 88.0479 77.8882 88.0479C78.3278 88.6639 78.7747 89.1174 79.4732 89.4301C80.11 89.5181 80.5172 89.412 81.0559 89.0641C81.4321 88.6367 81.7012 88.1918 81.9652 87.6883C85.3362 81.3023 88.921 75.0279 92.2258 68.607C93.0643 66.9782 94.0998 65.6494 95.992 65.4921C98.5412 65.3652 99.5716 67.4502 100.566 69.4185C103.821 75.8603 107.287 82.2179 110.831 88.5051C111.288 89.3334 111.904 89.7013 112.937 89.3534C113.68 88.9713 114.086 88.3037 114.541 87.6321C120.193 79.3367 126.652 71.6577 132.578 63.5679C133.262 62.6619 134.002 62.0404 135.111 61.7375C136.357 61.6182 137.451 61.6684 138.455 62.4637C139.545 63.4782 139.799 64.5759 140.087 65.9849C142.894 79.3504 146.559 92.5109 149.662 105.807C150.276 108.395 150.066 111.045 148.931 113.455C148.106 115.067 146.771 116.348 145.502 117.609C131.363 131.768 117.68 146.289 103.288 160.173C102.292 161.134 102.292 161.134 100.801 162.329C99.545 163.337 97.8196 163.999 96.137 163.999C94.2152 164.039 92.6505 163.118 90.9487 162.131C90.9487 162.131 61.0735 131.892 45.9759 116.934C44.5292 115.5 43.2766 114.032 42.5687 112.096C41.8116 109.96 41.8324 107.491 42.4997 105.337C46.2753 92.3539 48.9877 79.0426 51.9537 65.8562C52.2381 64.6187 52.5395 63.445 53.5416 62.5914C53.632 62.5084 53.7224 62.4254 53.8155 62.3398C55.2553 61.3234 56.6278 61.4215 58.1679 62.2255Z" fill="#FAFAFA"/>
<path d="M96.0214 87.2038C96.7301 87.161 97.2811 87.4766 97.7709 87.9884C97.7709 87.9884 106.599 103.899 110.928 111.715C111.371 112.524 111.748 113.364 112.126 114.204C112.584 115.226 112.957 116.259 113.258 117.337C113.817 119.288 114.018 121.317 113.999 123.343C113.963 127.252 113.373 131.048 111.631 134.577C110.289 137.247 108.196 139.36 106.105 141.449C105.808 141.745 105.512 142.042 105.217 142.339C105.028 142.528 104.84 142.716 104.652 142.904C104.519 143.038 104.519 143.038 104.383 143.174C104.302 143.255 104.22 143.337 104.136 143.421C104.064 143.492 103.992 143.564 103.918 143.638C103.534 143.99 103.163 143.975 102.663 143.972C102.396 143.928 102.396 143.928 102.091 143.639C101.809 143.144 101.772 142.883 101.77 142.308C101.746 136.567 101.704 130.825 101.717 125.085C101.727 124.111 101.725 122.793 100.95 122.067C100.106 121.24 98.7347 121.462 97.6486 121.455C96.2662 121.448 94.8832 121.452 93.501 121.432C92.5193 121.419 91.6046 121.319 90.9554 122.113C90.152 123.096 90.2856 124.183 90.2817 125.085C90.2553 131.232 90.2889 136.289 90.2717 142.436C90.2091 142.969 90.0134 143.365 89.6865 143.787C89.3682 144.022 89.0902 144.01 88.7048 143.991C88.3438 143.917 88.2017 143.803 87.9341 143.554C87.1736 142.851 86.4426 142.118 85.7101 141.386C85.4434 141.121 85.1755 140.856 84.9075 140.591C81.1026 136.81 78.0663 131.827 78.0177 126.307C78.0202 123.233 77.8124 120.079 78.7545 117.109C79.1007 115.988 79.5285 114.898 80.0019 113.826C80.6724 112.262 81.5154 110.79 82.3536 109.312C86.3179 102.3 90.1361 95.207 94.1905 88.2462C94.6524 87.5566 95.2016 87.2381 96.0214 87.2038Z" fill="#1F1F1F"/>
<path d="M100.123 29.5754C100.723 30.0746 101.131 30.5816 101.528 31.2498C106.852 39.9413 112.13 48.6711 117.615 57.2627C118.356 58.4481 118.823 59.5181 118.799 60.9308C118.771 63.1066 117.63 64.7913 116.183 66.3312C115.432 67.1184 114.833 67.7754 113.685 67.9976C112.906 68.0247 112.217 67.8113 111.611 67.3231C110.826 66.3763 110.189 65.3243 109.552 64.2751C105.969 58.4099 102.224 52.6432 98.6639 46.7642C98.1928 46.0063 97.6858 45.5419 96.8473 45.1972C96.0859 45.0912 95.2795 45.0493 94.5981 45.448C93.7918 46.0889 93.2701 46.8988 92.7593 47.7815C92.7593 47.7815 84.9336 60.3288 81.0545 66.6238C80.5219 67.3382 79.8369 67.8439 78.9374 67.982C77.9551 68.0388 77.2377 67.7017 76.4879 67.0836C74.7233 65.4105 73.2695 63.2682 73.2011 60.7788C73.1637 59.2826 73.9416 58.0052 74.736 56.7884C79.9031 48.7019 84.849 40.4755 89.9012 32.3172C91.0977 30.3984 92.2629 28.8343 94.5146 28.1258C96.5579 27.7255 98.5137 28.2985 100.123 29.5754Z" fill="#FAFAFA"/>
<path d="M58.5337 81.6044C59.5529 81.5189 60.1961 82.7007 60.7067 83.4433C64.6682 89.0971 68.768 94.6462 72.7543 100.281C73.2511 101.05 73.2558 101.786 73.1331 102.691C72.9228 103.272 72.6428 103.797 72.3502 104.337C69.8827 108.963 68.2138 113.792 67.8384 119.071C67.7724 119.928 67.6892 120.657 67.1151 121.339C66.0064 121.972 65.2064 121.363 64.4856 120.489L55.17 110.58C54.1055 109.507 53.2695 108.168 53.1998 106.593C53.2031 105.248 53.2996 103.995 53.5898 102.682L56.707 85.1379C56.8754 83.9615 56.9622 81.695 58.5337 81.6044Z" fill="#1F1F1F"/>
<path d="M134.422 81.6593C134.965 81.9641 135.163 82.3136 135.402 82.875L139.565 104.758C139.726 106.674 139.337 108.277 138.218 109.865C134.819 113.751 130.661 116.99 127.373 120.95C126.76 121.652 125.762 121.826 124.993 121.27C124.619 120.748 124.476 120.3 124.434 119.665C124.027 114.143 122.165 109.014 119.498 104.208C118.92 103.134 118.665 102.217 118.87 100.99C119.118 100.421 119.452 99.9402 119.826 99.4471C123.47 94.5799 127.104 89.7052 130.713 84.8121C133.169 81.4841 133.169 81.4841 134.422 81.6593Z" fill="#1F1F1F"/>
</svg>
