<svg width="192" height="273" viewBox="0 0 192 273" fill="none" xmlns="http://www.w3.org/2000/svg">
    <path d="M73.6 40.5333C61.6 62.8 51.8667 81.4667 51.8667 81.8667C51.8667 83.4667 62.5333 98.6667 63.6 98.6667C64.1333 98.6667 71.4667 85.7333 79.8667 70C88.2667 54.2667 95.4667 41.3333 95.8667 41.3333C96.5333 41.3333 124.4 92.2667 126 96.2667C126.4 97.6 127.2 98.6667 127.733 98.6667C128.8 98.6667 138.267 86.1333 139.333 83.3333C140 81.6 97.4667 -1.53184e-05 95.8667 -1.53184e-05C95.4667 -1.53184e-05 85.4667 18.2667 73.6 40.5333Z" fill="white"/>
    <path d="M22 85.4666C20.9333 88.2666 9.6 134.267 4.53333 155.867L0 175.067L42.8 218.8L85.7333 262.533L95.5333 272.5L105.2 263.333L148.533 219.333C181.467 185.733 191.6 174.667 191.2 172.667C188.8 161.2 170 85.7333 169.333 85.0667C168.8 84.4 158.933 96.6667 147.333 112C135.733 127.467 125.867 140 125.333 140C124.667 140 111.733 117.467 96.9333 90.4C95.7333 88.2666 97.2 86 81.0667 115.067C73.4667 128.8 66.8 139.867 66.2667 139.733C65.7333 139.467 56.2667 127.333 45.0667 112.667C21.4667 81.4666 22.8 83.0666 22 85.4666ZM42.8 141.6C48.9333 149.867 54.4 157.333 54.9333 158.267C55.4667 159.2 54.2667 163.067 52.2667 166.933C50.4 170.8 47.7333 178.4 46.5333 183.733L44.5333 193.333L32.8 181.6L21.2 170L26.1333 148.267C28.8 136.4 31.2 126.667 31.3333 126.667C31.4667 126.667 36.5333 133.467 42.8 141.6ZM158.667 181.867C146.8 193.733 146.533 193.867 146.533 189.733C146.533 184.4 142 169.867 138.533 164.267L135.867 159.867L148.133 142.933L160.533 126.133L165.733 147.867L170.933 169.6L158.667 181.867ZM109.467 152.4C126.4 182.533 127.067 184 127.067 196C127.067 208.533 124 215.867 114.267 226.133L107.2 233.6L106.533 213.867L105.867 194H95.8667H85.8667V213.6C85.8667 224.533 85.4667 233.333 85.0667 233.333C83.6 233.333 70.9333 219.2 68.8 215.2C67.7333 213.067 66.1333 207.867 65.3333 203.733C62.5333 190.667 64.6667 184.133 80.8 155.067C88.6667 140.933 95.4667 129.333 95.8667 129.333C96.2667 129.333 102.4 139.733 109.467 152.4Z" fill="white"/>
</svg>
