<svg width="256" height="256" viewBox="0 0 256 256" fill="none" xmlns="http://www.w3.org/2000/svg">
<rect width="256" height="256" fill="#1D1D1D"/>
<path d="M80.71 85.7819C81.6693 86.4345 82.3253 87.2846 82.9826 88.2295C90.1083 98.4201 105.36 118.06 105.36 118.06C105.91 118.83 106.469 119.397 107.342 119.788C108.138 119.898 108.647 119.765 109.32 119.33C109.79 118.796 110.127 118.24 110.457 117.61C114.67 109.628 119.151 101.785 123.282 93.7587C124.33 91.7228 125.625 90.0618 127.99 89.8652C131.177 89.7066 132.465 92.3128 133.707 94.7731C137.776 102.825 142.108 110.772 146.539 118.631C147.11 119.667 147.88 120.127 149.172 119.692C150.1 119.214 150.607 118.38 151.177 117.54C158.241 107.171 166.315 97.5721 173.723 87.4599C174.577 86.3274 175.502 85.5506 176.888 85.1719C178.446 85.0227 179.814 85.0855 181.068 86.0797C182.431 87.3477 182.748 88.72 183.109 90.4811C186.617 107.188 191.199 123.639 195.077 140.258C195.845 143.493 195.582 146.807 194.164 149.818C193.132 151.834 191.463 153.435 189.878 155.011C172.204 172.71 155.1 190.861 137.111 208.216C135.865 209.418 135.865 209.418 134.002 210.912C132.431 212.171 130.275 212.998 128.171 212.998C125.769 213.049 123.813 211.898 121.686 210.664C121.686 210.664 84.342 172.865 65.47 154.167C63.6616 152.375 62.0959 150.54 61.211 148.12C60.2647 145.45 60.2906 142.364 61.1247 139.672C65.8442 123.442 69.2347 106.803 72.9423 90.3203C73.2977 88.7734 73.6745 87.3063 74.9272 86.2393C75.0402 86.1355 75.1531 86.0318 75.2696 85.9248C77.0692 84.6543 78.7849 84.7769 80.71 85.7819Z" fill="#FAFAFA"/>
<path d="M128.027 117.005C128.913 116.951 129.601 117.346 130.214 117.986C130.214 117.986 141.249 137.874 146.66 147.644C147.214 148.655 147.685 149.705 148.158 150.756C148.73 152.032 149.196 153.324 149.572 154.671C150.271 157.11 150.523 159.647 150.498 162.179C150.454 167.065 149.716 171.81 147.538 176.221C145.861 179.559 143.245 182.2 140.631 184.811C140.261 185.181 139.891 185.553 139.521 185.924C139.285 186.159 139.05 186.395 138.815 186.631C138.649 186.797 138.649 186.797 138.479 186.967C138.377 187.069 138.275 187.171 138.17 187.276C138.08 187.365 137.99 187.455 137.898 187.548C137.418 187.988 136.953 187.969 136.329 187.965C135.995 187.911 135.995 187.911 135.614 187.549C135.261 186.93 135.215 186.604 135.213 185.885C135.182 178.709 135.13 171.532 135.146 164.356C135.158 163.139 135.157 161.491 134.188 160.584C133.132 159.55 131.418 159.828 130.061 159.819C128.333 159.81 126.604 159.815 124.876 159.79C123.649 159.773 122.506 159.648 121.694 160.641C120.69 161.87 120.857 163.229 120.852 164.356C120.819 172.04 120.861 178.361 120.84 186.045C120.761 186.711 120.517 187.206 120.108 187.733C119.71 188.028 119.363 188.012 118.881 187.988C118.43 187.896 118.252 187.754 117.918 187.442C116.967 186.564 116.053 185.647 115.138 184.733C114.804 184.401 114.469 184.07 114.134 183.739C109.378 179.013 105.583 172.784 105.522 165.884C105.525 162.041 105.266 158.099 106.443 154.386C106.876 152.985 107.411 151.623 108.003 150.282C108.841 148.328 109.894 146.487 110.942 144.64C115.897 135.875 120.67 127.009 125.738 118.308C126.316 117.446 127.002 117.048 128.027 117.005Z" fill="#1D1D1D"/>
<path d="M133.154 44.9694C133.903 45.5934 134.414 46.2271 134.91 47.0623C141.565 57.9267 148.163 68.839 155.019 79.5784C155.946 81.0602 156.529 82.3977 156.499 84.1636C156.464 86.8834 155.037 88.9892 153.229 90.9141C152.29 91.8981 151.542 92.7194 150.106 92.9971C149.132 93.031 148.272 92.7643 147.514 92.1539C146.532 90.9704 145.737 89.6555 144.94 88.344C140.461 81.0125 135.78 73.8041 131.33 66.4553C130.741 65.508 130.107 64.9276 129.059 64.4966C128.108 64.3641 127.1 64.3118 126.248 64.8101C125.24 65.6113 124.588 66.6237 123.949 67.7269C123.949 67.7269 114.167 83.4111 109.318 91.2798C108.653 92.1729 107.796 92.8049 106.672 92.9775C105.444 93.0487 104.547 92.6272 103.61 91.8546C101.404 89.7632 99.5871 87.0854 99.5016 83.9736C99.4548 82.1034 100.427 80.5066 101.42 78.9856C107.879 68.8774 114.061 58.5945 120.377 48.3966C121.872 45.9982 123.329 44.043 126.143 43.1575C128.698 42.657 131.142 43.3733 133.154 44.9694Z" fill="#FAFAFA"/>
<path d="M81.1674 110.005C82.4414 109.899 83.2454 111.376 83.8836 112.304C88.8354 119.371 93.9603 126.308 98.943 133.352C99.5641 134.313 99.5699 135.233 99.4166 136.364C99.1537 137.089 98.8036 137.746 98.4379 138.421C95.3536 144.204 93.2675 150.24 92.7983 156.839C92.7156 157.909 92.6117 158.821 91.8941 159.674C90.5082 160.465 89.5081 159.703 88.6072 158.612L76.9627 146.225C75.6321 144.884 74.5871 143.21 74.5 141.241C74.504 139.559 74.6247 137.994 74.9874 136.353L78.8839 114.422C79.0944 112.952 79.203 110.119 81.1674 110.005Z" fill="#1D1D1D"/>
<path d="M176.028 110.074C176.707 110.455 176.953 110.892 177.252 111.594L182.457 138.948C182.657 141.342 182.172 143.346 180.773 145.331C176.524 150.188 171.326 154.237 167.217 159.188C166.45 160.066 165.202 160.283 164.241 159.587C163.774 158.936 163.596 158.375 163.543 157.581C163.034 150.679 160.707 144.268 157.373 138.261C156.651 136.917 156.332 135.772 156.587 134.237C156.898 133.526 157.316 132.925 157.783 132.309C162.338 126.225 166.881 120.131 171.391 114.015C174.462 109.855 174.462 109.855 176.028 110.074Z" fill="#1D1D1D"/>
</svg>
