<svg width="256" height="256" viewBox="0 0 256 256" fill="none" xmlns="http://www.w3.org/2000/svg">
<path d="M135.408 2.96561C136.536 3.90533 137.306 4.85966 138.052 6.11742C148.074 22.4779 158.01 38.9104 168.334 55.0828C169.729 57.3142 170.609 59.3284 170.562 61.9876C170.51 66.0833 168.362 69.2544 165.638 72.1529C164.225 73.6348 163.097 74.8715 160.936 75.2898C159.469 75.3408 158.174 74.9392 157.032 74.02C155.554 72.2378 154.356 70.2577 153.156 68.2828C146.411 57.2424 139.363 46.3874 132.661 35.321C131.774 33.8943 130.82 33.0203 129.242 32.3714C127.809 32.1718 126.291 32.0931 125.008 32.8435C123.49 34.0499 122.508 35.5745 121.547 37.2359C121.547 37.2359 106.816 60.8544 99.5142 72.7038C98.5115 74.0485 97.2222 75.0004 95.5291 75.2603C93.68 75.3674 92.3295 74.7328 90.9182 73.5694C87.5965 70.4198 84.86 66.3874 84.7313 61.7014C84.6608 58.8852 86.1251 56.4805 87.6205 54.1901C97.3468 38.9684 106.657 23.4835 116.167 8.1267C118.419 4.51491 120.612 1.57062 124.851 0.237101C128.697 -0.516546 132.378 0.562114 135.408 2.96561Z" fill="#FAFAFA"/>
<path d="M48.2405 64.6394C50.9503 62.7265 53.5351 62.9104 56.4339 64.4236C57.8783 65.4064 58.866 66.6875 59.8557 68.1101C70.5696 83.4325 93.4834 112.94 93.554 113.031C94.3814 114.19 95.2228 115.044 96.5374 115.633C97.7359 115.798 98.503 115.599 99.5169 114.944C100.225 114.14 100.731 113.302 101.228 112.354C107.573 100.334 114.322 88.5225 120.542 76.4363C122.121 73.3707 124.071 70.8692 127.632 70.573C132.43 70.3347 134.37 74.2591 136.241 77.9637C142.368 90.0892 148.892 102.057 155.565 113.891C156.424 115.45 157.584 116.143 159.529 115.488C160.927 114.769 161.69 113.512 162.548 112.248C173.186 96.6333 185.345 82.1785 196.499 66.951C197.786 65.2459 199.181 64.0759 201.267 63.5056C203.612 63.2811 205.674 63.376 207.562 64.8728C209.614 66.7821 210.092 68.849 210.634 71.5008C215.918 96.6591 222.817 121.432 228.657 146.46C229.813 151.331 229.417 156.32 227.282 160.855C225.728 163.89 223.214 166.302 220.827 168.675C194.213 195.328 168.457 222.661 141.366 248.797C139.492 250.605 139.491 250.606 136.685 252.855C134.32 254.751 131.072 255.997 127.905 255.997C124.287 256.073 121.342 254.34 118.139 252.482C118.029 252.371 61.875 195.533 33.4837 167.404C30.7606 164.705 28.4031 161.942 27.0706 158.298C25.6457 154.277 25.6847 149.63 26.9407 145.576C34.0476 121.137 39.1535 96.0797 44.7366 71.2586C45.2718 68.9295 45.8389 66.7197 47.7249 65.1131C47.8948 64.957 48.0655 64.8002 48.2405 64.6394ZM127.687 111.442C126.144 111.507 125.11 112.107 124.241 113.404C116.609 126.507 109.421 139.859 101.959 153.057C100.382 155.839 98.7944 158.611 97.5325 161.553C96.6414 163.573 95.8366 165.624 95.1848 167.733C93.4116 173.324 93.8028 179.261 93.7981 185.048C93.8895 195.439 99.6049 204.818 106.767 211.936C107.271 212.434 107.776 212.932 108.278 213.432C109.656 214.809 111.033 216.19 112.464 217.512C112.968 217.982 113.235 218.196 113.914 218.335C114.64 218.371 115.164 218.394 115.763 217.951C116.378 217.158 116.746 216.411 116.864 215.409C116.896 203.838 116.833 194.319 116.883 182.748C116.89 181.05 116.639 179.004 118.151 177.154C119.373 175.66 121.095 175.846 122.943 175.871C125.544 175.909 128.148 175.901 130.75 175.915C132.794 175.928 135.375 175.51 136.965 177.067C138.423 178.433 138.426 180.915 138.407 182.748C138.384 193.553 138.462 204.362 138.509 215.167C138.511 216.25 138.581 216.741 139.113 217.673C139.685 218.217 139.686 218.218 140.189 218.301C141.129 218.307 141.829 218.334 142.551 217.672C142.69 217.533 142.826 217.397 142.961 217.262C143.119 217.104 143.273 216.95 143.427 216.797C143.681 216.541 143.682 216.54 143.932 216.29C144.286 215.935 144.641 215.581 144.995 215.226C145.552 214.667 146.11 214.108 146.668 213.551C150.604 209.619 154.544 205.641 157.069 200.615C160.348 193.973 161.46 186.826 161.527 179.469C161.564 175.656 161.184 171.836 160.132 168.164C159.565 166.135 158.863 164.189 158.002 162.267C157.29 160.686 156.58 159.104 155.746 157.582C147.598 142.868 130.98 112.919 130.98 112.919C130.058 111.956 129.02 111.362 127.687 111.442ZM57.1214 100.902C54.164 101.073 53.9998 105.339 53.6829 107.553L47.8157 140.579C47.2695 143.05 47.0874 145.407 47.0813 147.939C47.2125 150.905 48.7867 153.425 50.7903 155.445L68.3255 174.097C69.6821 175.741 71.1879 176.888 73.2747 175.697C74.3554 174.413 74.5126 173.04 74.637 171.428C75.3436 161.491 78.4847 152.402 83.1292 143.693C83.6799 142.677 84.207 141.688 84.6028 140.595C84.8338 138.892 84.8251 137.506 83.8899 136.059C76.3865 125.452 68.669 115.006 61.2122 104.364C60.2512 102.966 59.0399 100.741 57.1214 100.902ZM199.97 101.006C197.612 100.676 197.612 100.676 192.989 106.94C186.196 116.151 179.355 125.327 172.496 134.489C171.793 135.417 171.163 136.322 170.696 137.392C170.31 139.703 170.791 141.428 171.878 143.451C176.899 152.497 180.403 162.151 181.169 172.546C181.249 173.741 181.518 174.585 182.221 175.566C183.669 176.614 185.548 176.287 186.702 174.965C192.89 167.51 200.718 161.412 207.116 154.097C209.223 151.108 209.954 148.091 209.652 144.486L201.815 103.294C201.365 102.237 200.992 101.579 199.97 101.006Z" fill="#FAFAFA"/>
</svg>
